<svg xmlns="http://www.w3.org/2000/svg" width="24" height="24" viewBox="0 0 24 24" fill="none">
  <path d="M12.0032 6.60824C9.02224 6.60824 6.61781 9.01267 6.61781 11.9936C6.61781 14.9745 9.02224 17.379 12.0032 17.379C14.9841 17.379 17.3885 14.9745 17.3885 11.9936C17.3885 9.01267 14.9841 6.60824 12.0032 6.60824ZM12.0032 15.4948C10.0768 15.4948 8.50199 13.9246 8.50199 11.9936C8.50199 10.0626 10.0721 8.49242 12.0032 8.49242C13.9342 8.49242 15.5044 10.0626 15.5044 11.9936C15.5044 13.9246 13.9295 15.4948 12.0032 15.4948ZM18.8649 6.38795C18.8649 7.08632 18.3025 7.64407 17.6088 7.64407C16.9105 7.64407 16.3527 7.08163 16.3527 6.38795C16.3527 5.69428 16.9152 5.13184 17.6088 5.13184C18.3025 5.13184 18.8649 5.69428 18.8649 6.38795ZM22.4318 7.66282C22.3521 5.98019 21.9677 4.48972 20.7351 3.26172C19.5071 2.03373 18.0166 1.6494 16.334 1.56503C14.5998 1.4666 9.40189 1.4666 7.6677 1.56503C5.98976 1.64471 4.49929 2.02904 3.26661 3.25704C2.03393 4.48503 1.65428 5.9755 1.56991 7.65813C1.47149 9.39232 1.47149 14.5902 1.56991 16.3244C1.64959 18.007 2.03393 19.4975 3.26661 20.7255C4.49929 21.9535 5.98507 22.3378 7.6677 22.4222C9.40189 22.5206 14.5998 22.5206 16.334 22.4222C18.0166 22.3425 19.5071 21.9582 20.7351 20.7255C21.9631 19.4975 22.3474 18.007 22.4318 16.3244C22.5302 14.5902 22.5302 9.39701 22.4318 7.66282ZM20.1914 18.1851C19.8258 19.1038 19.118 19.8115 18.1947 20.1818C16.812 20.7302 13.5311 20.6036 12.0032 20.6036C10.4752 20.6036 7.18963 20.7255 5.81165 20.1818C4.893 19.8162 4.18526 19.1085 3.81499 18.1851C3.26661 16.8025 3.39316 13.5216 3.39316 11.9936C3.39316 10.4656 3.2713 7.18006 3.81499 5.80208C4.18057 4.88343 4.88831 4.17569 5.81165 3.80542C7.19431 3.25704 10.4752 3.38359 12.0032 3.38359C13.5311 3.38359 16.8167 3.26172 18.1947 3.80542C19.1134 4.171 19.8211 4.87874 20.1914 5.80208C20.7397 7.18474 20.6132 10.4656 20.6132 11.9936C20.6132 13.5216 20.7397 16.8072 20.1914 18.1851Z" fill="#C1C4CD"/>
</svg>