<svg xmlns="http://www.w3.org/2000/svg" width="40" height="40" viewBox="0 0 40 40" fill="none">
  <path fill-rule="evenodd" clip-rule="evenodd" d="M8.88856 6.66602C5.82032 6.66602 3.33301 9.22439 3.33301 12.3803V27.6184C3.33301 30.7743 5.82032 33.3327 8.88856 33.3327H31.1108C34.179 33.3327 36.6663 30.7743 36.6663 27.6184V12.3803C36.6663 9.22439 34.179 6.66602 31.1108 6.66602H8.88856ZM12.7075 13.6979C11.9887 13.1229 10.9399 13.2394 10.3649 13.9582C9.78988 14.677 9.90641 15.7258 10.6252 16.3008L18.9585 22.9675L19.9997 23.8004L21.0408 22.9675L29.3742 16.3008C30.0929 15.7258 30.2095 14.677 29.6345 13.9582C29.0594 13.2394 28.0106 13.1229 27.2919 13.6979L19.9997 19.5316L12.7075 13.6979Z" fill="#121316"/>
</svg>